<svg width="3800" height="2760" viewBox="0 0 3800 2760" fill="none" xmlns="http://www.w3.org/2000/svg">
  <defs>
    <filter id="shadowSoft" x="-20%" y="-20%" width="140%" height="140%">
      <feDropShadow dx="0" dy="18" stdDeviation="24" flood-color="#000000" flood-opacity="0.22"/>
    </filter>
    <filter id="shadowStrong" x="-20%" y="-20%" width="140%" height="140%">
      <feDropShadow dx="0" dy="24" stdDeviation="36" flood-color="#000000" flood-opacity="0.32"/>
    </filter>
    <style>
      .pageTitle { font: 700 54px 'Segoe UI', Arial, sans-serif; fill: #FFFFFF; }
      .pageSub { font: 500 22px 'Segoe UI', Arial, sans-serif; fill: #B4B7BD; }
      .cap { font: 700 16px 'Segoe UI', Arial, sans-serif; letter-spacing: .08em; text-transform: uppercase; fill: #94A3B8; }
      .screenLabel { font: 700 22px 'Segoe UI', Arial, sans-serif; fill: #FFFFFF; }
      .title { font: 700 18px 'Segoe UI', Arial, sans-serif; fill: #FFFFFF; }
      .titleBig { font: 700 26px 'Segoe UI', Arial, sans-serif; fill: #FFFFFF; }
      .body { font: 500 16px 'Segoe UI', Arial, sans-serif; fill: #DCDDDE; }
      .muted { font: 500 15px 'Segoe UI', Arial, sans-serif; fill: #B5BAC1; }
      .small { font: 500 13px 'Segoe UI', Arial, sans-serif; fill: #949BA4; }
      .tiny { font: 600 12px 'Segoe UI', Arial, sans-serif; fill: #B5BAC1; letter-spacing: .06em; text-transform: uppercase; }
      .button { font: 700 16px 'Segoe UI', Arial, sans-serif; fill: #FFFFFF; }
      .buttonDark { font: 700 16px 'Segoe UI', Arial, sans-serif; fill: #1E1F22; }
      .input { font: 500 16px 'Segoe UI', Arial, sans-serif; fill: #FFFFFF; }
      .placeholder { font: 500 16px 'Segoe UI', Arial, sans-serif; fill: #8E9297; }
      .brand { fill: #FF8A3D; }
    </style>
  </defs>

  <rect width="3800" height="2760" fill="#23262D"/>
  <text x="110" y="110" class="cap" fill="#FF8A3D">Figma Import</text>
  <text x="110" y="170" class="pageTitle">Chilllink UI Board</text>
  <text x="110" y="212" class="pageSub">Board aligned with the current site design. Import in Figma, then split into frames.</text>

  <!-- AUTH / LOGIN -->
  <g transform="translate(90 300)">
    <text x="0" y="0" class="screenLabel">Auth / Login</text>
    <rect x="0" y="36" width="760" height="860" rx="24" fill="#2B2D31"/>
    <rect x="190" y="140" width="430" height="610" rx="22" fill="#1E1F22" filter="url(#shadowStrong)"/>
    <rect x="442" y="224" width="28" height="28" rx="8" fill="#FF8A3D"/>
    <circle cx="456" cy="238" r="8" fill="#1E1F22"/>
    <text x="484" y="247" class="title">Chilllink</text>
    <text x="310" y="355" class="titleBig">Connexion</text>
    <text x="246" y="434" class="body">Email</text>
    <rect x="246" y="456" width="318" height="58" rx="6" fill="#D9E1F0"/>
    <rect x="506" y="472" width="22" height="22" rx="5" fill="#B7BCC6"/>
    <text x="266" y="493" style="font:500 15px 'Segoe UI', Arial, sans-serif; fill:#000000">boungou.elsie@yahoo.fr</text>
    <text x="246" y="568" class="body">Mot de passe</text>
    <rect x="246" y="590" width="318" height="58" rx="6" fill="#D9E1F0"/>
    <rect x="506" y="606" width="22" height="22" rx="5" fill="#B7BCC6"/>
    <text x="266" y="627" style="font:700 15px 'Segoe UI', Arial, sans-serif; fill:#000000">••••••••</text>
    <rect x="246" y="682" width="318" height="58" rx="6" fill="#FF8A3D"/>
    <text x="347" y="719" class="button">Se connecter</text>
    <text x="314" y="790" class="body">Pas de compte ?</text>
    <text x="470" y="790" style="font:700 16px 'Segoe UI', Arial, sans-serif; fill:#FF8A3D">Inscription</text>
  </g>

  <!-- AUTH / REGISTER -->
  <g transform="translate(900 300)">
    <text x="0" y="0" class="screenLabel">Auth / Register</text>
    <rect x="0" y="36" width="760" height="860" rx="24" fill="#2B2D31"/>
    <rect x="190" y="140" width="430" height="610" rx="22" fill="#1E1F22" filter="url(#shadowStrong)"/>
    <rect x="442" y="224" width="28" height="28" rx="8" fill="#FF8A3D"/>
    <circle cx="456" cy="238" r="8" fill="#1E1F22"/>
    <text x="484" y="247" class="title">Chilllink</text>
    <text x="318" y="355" class="titleBig">Inscription</text>
    <text x="246" y="434" class="body">Email</text>
    <rect x="246" y="456" width="318" height="58" rx="6" fill="#D9E1F0"/>
    <rect x="506" y="472" width="22" height="22" rx="5" fill="#B7BCC6"/>
    <text x="266" y="493" style="font:500 15px 'Segoe UI', Arial, sans-serif; fill:#000000">boungou.elsie@yahoo.fr</text>
    <text x="246" y="568" class="body">Mot de passe</text>
    <rect x="246" y="590" width="318" height="58" rx="6" fill="#D9E1F0"/>
    <rect x="506" y="606" width="22" height="22" rx="5" fill="#B7BCC6"/>
    <text x="266" y="627" style="font:700 15px 'Segoe UI', Arial, sans-serif; fill:#000000">••••••••</text>
    <rect x="246" y="682" width="318" height="58" rx="6" fill="#FF8A3D"/>
    <text x="360" y="719" class="button">S'inscrire</text>
    <text x="290" y="790" class="body">Déjà un compte ?</text>
    <text x="462" y="790" style="font:700 16px 'Segoe UI', Arial, sans-serif; fill:#FF8A3D">Connexion</text>
  </g>

  <!-- DASHBOARD -->
  <g transform="translate(1710 300)">
    <text x="0" y="0" class="screenLabel">Dashboard / Chat</text>
    <rect x="0" y="36" width="2000" height="1160" rx="18" fill="#2B2D31" filter="url(#shadowSoft)"/>
    <rect x="0" y="36" width="2000" height="58" fill="#1A1B1E"/>
    <rect x="20" y="52" width="18" height="18" rx="5" fill="#FF8A3D"/>
    <circle cx="29" cy="61" r="5.5" fill="#1A1B1E"/>
    <text x="54" y="70" class="title" style="font-size:15px">Chilllink</text>
    <rect x="1800" y="44" width="176" height="42" rx="10" fill="#313338" stroke="#2A2B2F"/>
    <text x="1830" y="69" class="body" style="font-size:15px">Mon compte</text>

    <rect x="0" y="94" width="72" height="1060" fill="#1E1F22"/>
    <rect x="72" y="94" width="310" height="1060" fill="#2B2D31"/>
    <rect x="382" y="94" width="1618" height="1060" fill="#313338"/>

    <circle cx="36" cy="156" r="24" fill="#313338"/>
    <text x="28" y="164" class="button" style="font-size:26px">+</text>
    <rect x="0" y="188" width="6" height="38" rx="3" fill="#FFFFFF"/>
    <circle cx="36" cy="228" r="24" fill="#FF8A3D"/>
    <text x="28" y="236" class="buttonDark" style="font-size:18px">P</text>
    <circle cx="36" cy="308" r="24" fill="#313338"/>
    <text x="28" y="316" class="button" style="font-size:18px">C</text>

    <text x="90" y="132" class="tiny">Channels</text>
    <rect x="258" y="106" width="106" height="36" rx="8" fill="#313338"/>
    <text x="272" y="129" class="body" style="font-size:14px">☰ Menu</text>
    <rect x="84" y="176" width="270" height="36" rx="8" fill="rgba(255,138,61,0.08)" stroke="#AD6E3A"/>
    <text x="106" y="199" class="body"># Taff</text>
    <text x="102" y="244" class="muted">🔒 suisse</text>
    <text x="102" y="286" class="body"># bébé</text>
    <text x="102" y="328" class="muted">🔒 guitare</text>
    <text x="102" y="370" class="muted">🔒 anglais</text>
    <text x="102" y="412" class="muted">🔒 Gaming</text>
    <text x="102" y="454" class="muted">🔒 Streaming</text>

    <text x="400" y="132" class="title" style="font-size:18px">Projet suisse</text>
    <rect x="1878" y="102" width="110" height="40" rx="8" fill="#313338" stroke="#77736A"/>
    <text x="1897" y="127" class="body" style="font-size:15px">🔒 Channel</text>
    <line x1="382" y1="140" x2="2000" y2="140" stroke="#1A1B1E"/>

    <text x="1140" y="190" class="tiny">Aujourd'hui</text>
    <text x="410" y="254" class="title" style="font-size:14px">boungou.elsie@yahoo.fr</text>
    <text x="640" y="254" class="small">12:25</text>
    <circle cx="422" cy="300" r="19" fill="#FF8A3D"/>
    <text x="414" y="307" class="buttonDark" style="font-size:14px">B</text>
    <rect x="448" y="270" width="142" height="48" rx="18" fill="#2B2D31" stroke="#1A1B1E" filter="url(#shadowSoft)"/>
    <text x="468" y="300" class="body">Bonjour John !</text>

    <text x="410" y="364" class="title" style="font-size:14px">boungou.john@yahoo.fr</text>
    <text x="632" y="364" class="small">12:26</text>
    <circle cx="422" cy="410" r="19" fill="#FF8A3D"/>
    <text x="414" y="417" class="buttonDark" style="font-size:14px">B</text>
    <rect x="448" y="380" width="142" height="48" rx="18" fill="#2B2D31" stroke="#1A1B1E"/>
    <text x="468" y="410" class="body">Bonjour Elsie</text>

    <text x="410" y="474" class="title" style="font-size:14px">boungou.elsie@yahoo.fr</text>
    <text x="640" y="474" class="small">12:26</text>
    <circle cx="422" cy="520" r="19" fill="#FF8A3D"/>
    <text x="414" y="527" class="buttonDark" style="font-size:14px">B</text>
    <rect x="448" y="490" width="268" height="48" rx="18" fill="#2B2D31" stroke="#1A1B1E"/>
    <text x="468" y="520" class="body">Comment ça va aujourd'hui ?</text>

    <text x="410" y="584" class="title" style="font-size:14px">boungou.john@yahoo.fr</text>
    <text x="632" y="584" class="small">12:27</text>
    <circle cx="422" cy="630" r="19" fill="#FF8A3D"/>
    <text x="414" y="637" class="buttonDark" style="font-size:14px">B</text>
    <rect x="448" y="600" width="118" height="48" rx="18" fill="#2B2D31" stroke="#1A1B1E"/>
    <text x="472" y="630" class="body">Bien et toi ?</text>

    <rect x="402" y="1038" width="1556" height="64" rx="20" fill="#1E1F22" stroke="#2A2B2F"/>
    <text x="438" y="1078" class="placeholder">Écrire un message...</text>
    <circle cx="1942" cy="1070" r="20" fill="#A96435"/>
    <text x="1934" y="1078" class="button" style="font-size:18px">➤</text>
    <line x1="382" y1="1154" x2="2000" y2="1154" stroke="#1A1B1E"/>
    <text x="1010" y="1186" class="muted" style="font-size:14px">© 2026 Chilllink. Tous droits réservés.</text>
  </g>

  <!-- ACCOUNT DROPDOWN -->
  <g transform="translate(90 1270)">
    <text x="0" y="0" class="screenLabel">Header / Account menu</text>
    <rect x="0" y="36" width="620" height="300" rx="18" fill="#2B2D31"/>
    <rect x="454" y="44" width="136" height="42" rx="10" fill="#313338"/>
    <text x="474" y="70" class="body" style="font-size:15px">👤 Mon compte</text>
    <rect x="448" y="92" width="170" height="128" rx="14" fill="#1E1F22" filter="url(#shadowSoft)"/>
    <text x="470" y="138" class="body">👤 Profil</text>
    <text x="470" y="186" style="font:500 16px 'Segoe UI', Arial, sans-serif; fill:#FF6B6B">🚪 Déconnexion</text>
  </g>

  <!-- CHANNEL MENU -->
  <g transform="translate(760 1270)">
    <text x="0" y="0" class="screenLabel">Sidebar / Channel menu</text>
    <rect x="0" y="36" width="620" height="300" rx="18" fill="#2B2D31"/>
    <rect x="28" y="44" width="208" height="42" rx="10" fill="#313338"/>
    <text x="42" y="70" class="body" style="font-size:15px">☰ Menu</text>
    <rect x="22" y="92" width="210" height="178" rx="18" fill="#1E1F22" filter="url(#shadowSoft)"/>
    <rect x="40" y="110" width="174" height="38" rx="10" fill="#2B2D31"/>
    <rect x="40" y="158" width="174" height="38" rx="10" fill="#2B2D31"/>
    <rect x="40" y="206" width="174" height="38" rx="10" fill="#2B2D31"/>
    <text x="58" y="134" class="body" style="fill:#D8B4FE">➕ Channel</text>
    <text x="58" y="182" class="body" style="fill:#FDBA74">🖊 Workspace</text>
    <text x="58" y="230" class="body" style="fill:#C4B5FD">👥 Workspace</text>
    <text x="58" y="278" class="body" style="fill:#FCA5A5">🗑 Workspace</text>
  </g>

  <!-- CREATE WORKSPACE -->
  <g transform="translate(1450 1270)">
    <text x="0" y="0" class="screenLabel">Modal / Create workspace</text>
    <rect x="0" y="36" width="900" height="520" rx="18" fill="#0B0E14"/>
    <rect x="110" y="90" width="650" height="280" rx="18" fill="#2B2D31" filter="url(#shadowStrong)"/>
    <line x1="110" y1="156" x2="760" y2="156" stroke="rgba(255,255,255,0.06)"/>
    <line x1="110" y1="300" x2="760" y2="300" stroke="rgba(255,255,255,0.06)"/>
    <text x="142" y="130" class="title" style="font-size:17px">Créer un workspace</text>
    <text x="142" y="152" class="small">Organise tes channels dans un nouvel espace</text>
    <rect x="700" y="104" width="38" height="38" rx="12" fill="#2F3239" stroke="#4B5563"/>
    <text x="713" y="130" class="body" style="font-size:20px">×</text>
    <text x="142" y="198" class="tiny">Nom</text>
    <rect x="142" y="214" width="430" height="38" rx="14" fill="#1E1F22" stroke="#FF8A3D"/>
    <text x="160" y="239" class="placeholder">Ex: Projet Chilllink</text>
    <rect x="582" y="216" width="64" height="34" rx="14" fill="#A96435"/>
    <text x="603" y="239" class="buttonDark" style="font-size:15px">Créer</text>
    <text x="142" y="278" class="muted">Tu pourras ensuite créer des channels à l'intérieur.</text>
    <rect x="598" y="314" width="100" height="40" rx="14" fill="#2B2D31" stroke="#3A3B40"/>
    <text x="626" y="339" class="body" style="font-size:15px">Annuler</text>
  </g>

  <!-- PROFILE MODAL -->
  <g transform="translate(2450 1270)">
    <text x="0" y="0" class="screenLabel">Modal / Profile</text>
    <rect x="0" y="36" width="1260" height="720" rx="18" fill="#050816"/>
    <rect x="18" y="56" width="1200" height="650" rx="16" fill="#2B2D31" filter="url(#shadowStrong)"/>
    <rect x="18" y="56" width="1200" height="78" rx="16" fill="#1E1F22"/>
    <text x="42" y="98" class="title" style="font-size:17px">Profil</text>
    <text x="42" y="120" class="small">Infos annexes liées à ton compte</text>
    <text x="1132" y="104" class="body" style="font-size:30px">×</text>
    <text x="42" y="190" class="small">Prénom</text>
    <rect x="42" y="206" width="538" height="60" rx="10" fill="#313338" stroke="#1A1B1E"/>
    <text x="62" y="243" class="input">Elsie</text>
    <text x="602" y="190" class="small">Nom</text>
    <rect x="602" y="206" width="578" height="60" rx="10" fill="#313338" stroke="#1A1B1E"/>
    <text x="622" y="243" class="input">LIKWELA ZOLANA</text>

    <text x="42" y="304" class="small">Date de naissance</text>
    <rect x="42" y="320" width="538" height="60" rx="10" fill="#313338" stroke="#1A1B1E"/>
    <text x="62" y="357" class="placeholder">jj / mm / aaaa</text>
    <text x="602" y="304" class="small">Téléphone</text>
    <rect x="602" y="320" width="578" height="60" rx="10" fill="#313338" stroke="#1A1B1E"/>

    <text x="42" y="418" class="small">Ville</text>
    <rect x="42" y="434" width="538" height="60" rx="10" fill="#313338" stroke="#1A1B1E"/>
    <text x="62" y="471" class="input">Warszawa</text>
    <text x="602" y="418" class="small">Pays</text>
    <rect x="602" y="434" width="578" height="60" rx="10" fill="#313338" stroke="#1A1B1E"/>
    <text x="622" y="471" class="input">Pologne</text>

    <text x="42" y="532" class="small">Bio</text>
    <rect x="42" y="548" width="1138" height="132" rx="10" fill="#313338" stroke="#1A1B1E"/>
    <text x="62" y="580" class="input">juste moi ^^</text>
    <rect x="942" y="618" width="114" height="50" rx="12" fill="#313338" stroke="#334155"/>
    <text x="974" y="649" class="body">Fermer</text>
    <rect x="1070" y="618" width="110" height="50" rx="12" fill="#6366F1"/>
    <text x="1090" y="649" class="button">Sauvegarder</text>
  </g>

  <!-- WORKSPACE MEMBERS -->
  <g transform="translate(90 1690)">
    <text x="0" y="0" class="screenLabel">Modal / Workspace members</text>
    <rect x="0" y="36" width="920" height="760" rx="18" fill="#0B0E14"/>
    <rect x="68" y="86" width="600" height="580" rx="18" fill="#2B2D31" filter="url(#shadowStrong)"/>
    <rect x="68" y="86" width="600" height="92" rx="18" fill="#27292D"/>
    <text x="94" y="126" class="title" style="font-size:17px">Membres du workspace</text>
    <text x="94" y="148" class="small">Inviter / gérer les membres du workspace</text>
    <rect x="610" y="102" width="34" height="34" rx="10" fill="#2F3239" stroke="#4B5563"/>
    <text x="621" y="124" class="body" style="font-size:18px">×</text>
    <text x="94" y="214" class="tiny">Inviter</text>
    <rect x="94" y="230" width="430" height="42" rx="14" fill="#1E1F22" stroke="#3A3B40"/>
    <text x="112" y="257" class="placeholder">email@example.com</text>
    <rect x="546" y="230" width="96" height="42" rx="14" fill="#A96435"/>
    <text x="575" y="257" class="buttonDark" style="font-size:15px">Inviter</text>
    <text x="94" y="312" class="muted" style="font-size:13px">Le membre aura accès au workspace, mais pas forcément aux channels.</text>
    <text x="94" y="372" class="tiny">Liste</text>
    <rect x="610" y="360" width="32" height="24" rx="12" fill="rgba(255,255,255,0.06)" stroke="rgba(255,255,255,0.08)"/>
    <text x="622" y="377" class="small">4</text>

    <g transform="translate(94 404)">
      <rect width="548" height="72" rx="14" fill="rgba(255,255,255,0.03)" stroke="rgba(255,255,255,0.06)"/>
      <circle cx="28" cy="36" r="18" fill="#FF8A3D"/>
      <text x="21" y="43" class="buttonDark" style="font-size:16px">B</text>
      <text x="52" y="33" class="title" style="font-size:16px">boungou.damien@yahoo.fr</text>
      <text x="52" y="54" class="small">id: 7</text>
      <rect x="454" y="18" width="78" height="36" rx="12" fill="rgba(255,80,80,0.10)" stroke="rgba(255,80,80,0.25)"/>
      <text x="472" y="41" style="font:700 15px 'Segoe UI', Arial, sans-serif; fill:#FFBABA">Retirer</text>
    </g>
    <g transform="translate(94 488)">
      <rect width="548" height="72" rx="14" fill="rgba(255,255,255,0.03)" stroke="rgba(255,255,255,0.06)"/>
      <circle cx="28" cy="36" r="18" fill="#FF8A3D"/>
      <text x="21" y="43" class="buttonDark" style="font-size:16px">B</text>
      <text x="52" y="33" class="title" style="font-size:16px">boungou.elsie@yahoo.fr</text>
      <text x="52" y="54" class="small">id: 4</text>
      <rect x="454" y="18" width="78" height="36" rx="12" fill="rgba(255,80,80,0.10)" stroke="rgba(255,80,80,0.25)"/>
      <text x="472" y="41" style="font:700 15px 'Segoe UI', Arial, sans-serif; fill:#FFBABA">Retirer</text>
    </g>
    <rect x="548" y="604" width="94" height="40" rx="12" fill="#2B2D31" stroke="#3A3B40"/>
    <text x="576" y="629" class="body" style="font-size:15px">Fermer</text>
  </g>

  <!-- CHANNEL SETTINGS -->
  <g transform="translate(1090 1690)">
    <text x="0" y="0" class="screenLabel">Modal / Channel settings</text>
    <rect x="0" y="36" width="900" height="760" rx="18" fill="#0B0E14"/>
    <rect x="68" y="86" width="620" height="660" rx="18" fill="#2B2D31" filter="url(#shadowStrong)"/>
    <rect x="68" y="86" width="620" height="92" rx="18" fill="#27292D"/>
    <text x="96" y="126" class="title" style="font-size:17px">🔒 Channel : Taff</text>
    <text x="96" y="148" class="small">Gérer l'accès et les paramètres</text>
    <rect x="628" y="102" width="34" height="34" rx="10" fill="#2F3239" stroke="#4B5563"/>
    <text x="639" y="124" class="body" style="font-size:18px">×</text>

    <text x="96" y="214" class="tiny">Renommer</text>
    <rect x="96" y="232" width="382" height="38" rx="14" fill="#1E1F22" stroke="#3A3B40"/>
    <text x="114" y="257" class="input">Taff</text>
    <rect x="494" y="232" width="114" height="38" rx="14" fill="#A96435"/>
    <text x="514" y="257" class="buttonDark" style="font-size:15px">Renommer</text>

    <text x="96" y="328" class="tiny">Ajouter un membre</text>
    <rect x="96" y="346" width="400" height="38" rx="14" fill="#1E1F22" stroke="#3A3B40"/>
    <text x="114" y="371" class="placeholder">email@example.com</text>
    <rect x="514" y="346" width="94" height="38" rx="14" fill="#A96435"/>
    <text x="540" y="371" class="buttonDark" style="font-size:15px">Ajouter</text>

    <text x="96" y="442" class="tiny">Liste</text>
    <rect x="578" y="430" width="30" height="24" rx="12" fill="rgba(255,255,255,0.06)" stroke="rgba(255,255,255,0.08)"/>
    <text x="589" y="447" class="small">3</text>
    <g transform="translate(96 468)">
      <rect width="512" height="68" rx="14" fill="rgba(255,255,255,0.03)" stroke="rgba(255,255,255,0.06)"/>
      <circle cx="26" cy="34" r="18" fill="#FF8A3D"/>
      <text x="19" y="41" class="buttonDark" style="font-size:16px">B</text>
      <text x="52" y="31" class="title" style="font-size:16px">boungou.elsie@yahoo.fr</text>
      <text x="52" y="52" class="small">id: 4</text>
      <rect x="428" y="16" width="68" height="36" rx="12" fill="rgba(255,80,80,0.10)" stroke="rgba(255,80,80,0.25)"/>
      <text x="445" y="39" style="font:700 15px 'Segoe UI', Arial, sans-serif; fill:#FFBABA">Retirer</text>
    </g>
    <g transform="translate(96 546)">
      <rect width="512" height="68" rx="14" fill="rgba(255,255,255,0.03)" stroke="rgba(255,255,255,0.06)"/>
      <circle cx="26" cy="34" r="18" fill="#FF8A3D"/>
      <text x="19" y="41" class="buttonDark" style="font-size:16px">B</text>
      <text x="52" y="31" class="title" style="font-size:16px">boungou.jessy@yahoo.fr</text>
      <text x="52" y="52" class="small">id: 5</text>
      <rect x="428" y="16" width="68" height="36" rx="12" fill="rgba(255,80,80,0.10)" stroke="rgba(255,80,80,0.25)"/>
      <text x="445" y="39" style="font:700 15px 'Segoe UI', Arial, sans-serif; fill:#FFBABA">Retirer</text>
    </g>
    <rect x="96" y="638" width="512" height="50" rx="12" fill="rgba(255,80,80,0.10)" stroke="rgba(255,80,80,0.25)"/>
    <text x="112" y="670" style="font:600 15px 'Segoe UI', Arial, sans-serif; fill:#FFBABA">⚠ Supprimer ce channel est irréversible.</text>
    <rect x="96" y="706" width="512" height="44" rx="12" fill="rgba(255,80,80,0.10)" stroke="rgba(255,80,80,0.25)"/>
    <text x="244" y="734" style="font:700 15px 'Segoe UI', Arial, sans-serif; fill:#FFBABA">🗑 Supprimer le channel</text>
  </g>

  <!-- DELETE CONFIRMATION -->
  <g transform="translate(2100 1690)">
    <text x="0" y="0" class="screenLabel">Modal / Delete workspace</text>
    <rect x="0" y="36" width="920" height="520" rx="18" fill="#0B0E14"/>
    <rect x="110" y="120" width="600" height="260" rx="18" fill="#2B2D31" filter="url(#shadowStrong)"/>
    <rect x="110" y="120" width="600" height="92" rx="18" fill="#27292D"/>
    <text x="140" y="160" class="title" style="font-size:17px">Supprimer le workspace</text>
    <text x="140" y="182" class="small">Cette action est irréversible</text>
    <rect x="652" y="136" width="34" height="34" rx="10" fill="#2F3239" stroke="#4B5563"/>
    <text x="663" y="158" class="body" style="font-size:18px">×</text>
    <rect x="144" y="240" width="532" height="66" rx="12" fill="rgba(255,80,80,0.10)" stroke="rgba(255,80,80,0.25)"/>
    <text x="160" y="267" style="font:700 14px 'Segoe UI', Arial, sans-serif; fill:#FFD6D6">Tous les channels et messages du workspace Projet suisse seront</text>
    <text x="160" y="288" style="font:700 14px 'Segoe UI', Arial, sans-serif; fill:#FFD6D6">définitivement supprimés.</text>
    <text x="144" y="338" class="body">Cette action ne peut pas être annulée.</text>
    <rect x="498" y="354" width="94" height="40" rx="14" fill="#2B2D31" stroke="#3A3B40"/>
    <text x="525" y="379" class="body" style="font-size:15px">Annuler</text>
    <rect x="604" y="354" width="94" height="40" rx="14" fill="rgba(255,80,80,0.10)" stroke="rgba(255,80,80,0.25)"/>
    <text x="630" y="379" style="font:700 15px 'Segoe UI', Arial, sans-serif; fill:#FFBABA">Supprimer</text>
  </g>
</svg>
