<svg id="my-svg" width="100%" xmlns="http://www.w3.org/2000/svg" xmlns:xlink="http://www.w3.org/1999/xlink" class="classDiagram" style="max-width: 1478.69px; background-color: rgb(11, 15, 25);" viewBox="0 0 1478.6875 1000.5" role="graphics-document document" aria-roledescription="class"><style>#my-svg{font-family:"trebuchet ms",verdana,arial,sans-serif;font-size:16px;fill:#ccc;}@keyframes edge-animation-frame{from{stroke-dashoffset:0;}}@keyframes dash{to{stroke-dashoffset:0;}}#my-svg .edge-animation-slow{stroke-dasharray:9,5!important;stroke-dashoffset:900;animation:dash 50s linear infinite;stroke-linecap:round;}#my-svg .edge-animation-fast{stroke-dasharray:9,5!important;stroke-dashoffset:900;animation:dash 20s linear infinite;stroke-linecap:round;}#my-svg .error-icon{fill:#a44141;}#my-svg .error-text{fill:#ddd;stroke:#ddd;}#my-svg .edge-thickness-normal{stroke-width:1px;}#my-svg .edge-thickness-thick{stroke-width:3.5px;}#my-svg .edge-pattern-solid{stroke-dasharray:0;}#my-svg .edge-thickness-invisible{stroke-width:0;fill:none;}#my-svg .edge-pattern-dashed{stroke-dasharray:3;}#my-svg .edge-pattern-dotted{stroke-dasharray:2;}#my-svg .marker{fill:lightgrey;stroke:lightgrey;}#my-svg .marker.cross{stroke:lightgrey;}#my-svg svg{font-family:"trebuchet ms",verdana,arial,sans-serif;font-size:16px;}#my-svg p{margin:0;}#my-svg g.classGroup text{fill:#ccc;stroke:none;font-family:"trebuchet ms",verdana,arial,sans-serif;font-size:10px;}#my-svg g.classGroup text .title{font-weight:bolder;}#my-svg .nodeLabel,#my-svg .edgeLabel{color:#e0dfdf;}#my-svg .edgeLabel .label rect{fill:#1f2020;}#my-svg .label text{fill:#e0dfdf;}#my-svg .labelBkg{background:#1f2020;}#my-svg .edgeLabel .label span{background:#1f2020;}#my-svg .classTitle{font-weight:bolder;}#my-svg .node rect,#my-svg .node circle,#my-svg .node ellipse,#my-svg .node polygon,#my-svg .node path{fill:#1f2020;stroke:#ccc;stroke-width:1px;}#my-svg .divider{stroke:#ccc;stroke-width:1;}#my-svg g.clickable{cursor:pointer;}#my-svg g.classGroup rect{fill:#1f2020;stroke:#ccc;}#my-svg g.classGroup line{stroke:#ccc;stroke-width:1;}#my-svg .classLabel .box{stroke:none;stroke-width:0;fill:#1f2020;opacity:0.5;}#my-svg .classLabel .label{fill:#ccc;font-size:10px;}#my-svg .relation{stroke:lightgrey;stroke-width:1;fill:none;}#my-svg .dashed-line{stroke-dasharray:3;}#my-svg .dotted-line{stroke-dasharray:1 2;}#my-svg #compositionStart,#my-svg .composition{fill:lightgrey!important;stroke:lightgrey!important;stroke-width:1;}#my-svg #compositionEnd,#my-svg .composition{fill:lightgrey!important;stroke:lightgrey!important;stroke-width:1;}#my-svg #dependencyStart,#my-svg .dependency{fill:lightgrey!important;stroke:lightgrey!important;stroke-width:1;}#my-svg #dependencyStart,#my-svg .dependency{fill:lightgrey!important;stroke:lightgrey!important;stroke-width:1;}#my-svg #extensionStart,#my-svg .extension{fill:transparent!important;stroke:lightgrey!important;stroke-width:1;}#my-svg #extensionEnd,#my-svg .extension{fill:transparent!important;stroke:lightgrey!important;stroke-width:1;}#my-svg #aggregationStart,#my-svg .aggregation{fill:transparent!important;stroke:lightgrey!important;stroke-width:1;}#my-svg #aggregationEnd,#my-svg .aggregation{fill:transparent!important;stroke:lightgrey!important;stroke-width:1;}#my-svg #lollipopStart,#my-svg .lollipop{fill:#1f2020!important;stroke:lightgrey!important;stroke-width:1;}#my-svg #lollipopEnd,#my-svg .lollipop{fill:#1f2020!important;stroke:lightgrey!important;stroke-width:1;}#my-svg .edgeTerminals{font-size:11px;line-height:initial;}#my-svg .classTitleText{text-anchor:middle;font-size:18px;fill:#ccc;}#my-svg .label-icon{display:inline-block;height:1em;overflow:visible;vertical-align:-0.125em;}#my-svg .node .label-icon path{fill:currentColor;stroke:revert;stroke-width:revert;}#my-svg :root{--mermaid-font-family:"trebuchet ms",verdana,arial,sans-serif;}</style><g><defs><marker id="my-svg_class-aggregationStart" class="marker aggregation class" refX="18" refY="7" markerWidth="190" markerHeight="240" orient="auto"><path d="M 18,7 L9,13 L1,7 L9,1 Z"/></marker></defs><defs><marker id="my-svg_class-aggregationEnd" class="marker aggregation class" refX="1" refY="7" markerWidth="20" markerHeight="28" orient="auto"><path d="M 18,7 L9,13 L1,7 L9,1 Z"/></marker></defs><defs><marker id="my-svg_class-extensionStart" class="marker extension class" refX="18" refY="7" markerWidth="190" markerHeight="240" orient="auto"><path d="M 1,7 L18,13 V 1 Z"/></marker></defs><defs><marker id="my-svg_class-extensionEnd" class="marker extension class" refX="1" refY="7" markerWidth="20" markerHeight="28" orient="auto"><path d="M 1,1 V 13 L18,7 Z"/></marker></defs><defs><marker id="my-svg_class-compositionStart" class="marker composition class" refX="18" refY="7" markerWidth="190" markerHeight="240" orient="auto"><path d="M 18,7 L9,13 L1,7 L9,1 Z"/></marker></defs><defs><marker id="my-svg_class-compositionEnd" class="marker composition class" refX="1" refY="7" markerWidth="20" markerHeight="28" orient="auto"><path d="M 18,7 L9,13 L1,7 L9,1 Z"/></marker></defs><defs><marker id="my-svg_class-dependencyStart" class="marker dependency class" refX="6" refY="7" markerWidth="190" markerHeight="240" orient="auto"><path d="M 5,7 L9,13 L1,7 L9,1 Z"/></marker></defs><defs><marker id="my-svg_class-dependencyEnd" class="marker dependency class" refX="13" refY="7" markerWidth="20" markerHeight="28" orient="auto"><path d="M 18,7 L9,13 L14,7 L9,1 Z"/></marker></defs><defs><marker id="my-svg_class-lollipopStart" class="marker lollipop class" refX="13" refY="7" markerWidth="190" markerHeight="240" orient="auto"><circle stroke="black" fill="transparent" cx="7" cy="7" r="6"/></marker></defs><defs><marker id="my-svg_class-lollipopEnd" class="marker lollipop class" refX="1" refY="7" markerWidth="190" markerHeight="240" orient="auto"><circle stroke="black" fill="transparent" cx="7" cy="7" r="6"/></marker></defs><g class="root"><g class="clusters"/><g class="edgePaths"><path d="M189.815,606L214.234,536.333C238.653,466.667,287.49,327.333,319.046,257.667C350.602,188,364.875,188,372.012,188L379.148,188" id="id_User_UserProfile_1" class="edge-thickness-normal edge-pattern-solid relation" style=";;;" data-edge="true" data-et="edge" data-id="id_User_UserProfile_1" data-points="W3sieCI6MTg5LjgxNTA3MDI4MzQ1NzI2LCJ5Ijo2MDZ9LHsieCI6MzM2LjMyODEyNSwieSI6MTg4fSx7IngiOjM4NS4xNDg0Mzc1LCJ5IjoxODh9XQ==" marker-end="url(#my-svg_class-dependencyEnd)"/><path d="M254.494,606L268.133,590.667C281.772,575.333,309.05,544.667,330.261,529.333C351.471,514,366.615,514,374.186,514L381.758,514" id="id_User_Workspace_2" class="edge-thickness-normal edge-pattern-solid relation" style=";;;" data-edge="true" data-et="edge" data-id="id_User_Workspace_2" data-points="W3sieCI6MjU0LjQ5NDAzMDA3MDc1NDcyLCJ5Ijo2MDZ9LHsieCI6MzM2LjMyODEyNSwieSI6NTE0fSx7IngiOjM4Ny43NTc4MTI1LCJ5Ijo1MTR9XQ==" marker-end="url(#my-svg_class-dependencyEnd)"/><path d="M686.992,482.576L696.576,480.564C706.159,478.551,725.326,474.525,743.057,472.513C760.789,470.5,777.086,470.5,785.234,470.5L793.383,470.5" id="id_Workspace_Channel_3" class="edge-thickness-normal edge-pattern-solid relation" style=";;;" data-edge="true" data-et="edge" data-id="id_Workspace_Channel_3" data-points="W3sieCI6Njg2Ljk5MjE4NzUsInkiOjQ4Mi41NzY0OTY1NDg2MDI0NX0seyJ4Ijo3NDQuNDkyMTg3NSwieSI6NDcwLjV9LHsieCI6Nzk5LjM4MjgxMjUsInkiOjQ3MC41fV0=" marker-end="url(#my-svg_class-dependencyEnd)"/><path d="M1088.609,470.5L1096.345,470.5C1104.081,470.5,1119.552,470.5,1137.205,478.935C1154.857,487.371,1174.691,504.242,1184.608,512.677L1194.525,521.112" id="id_Channel_Message_4" class="edge-thickness-normal edge-pattern-solid relation" style=";;;" data-edge="true" data-et="edge" data-id="id_Channel_Message_4" data-points="W3sieCI6MTA4OC42MDkzNzUsInkiOjQ3MC41fSx7IngiOjExMzUuMDIzNDM3NSwieSI6NDcwLjV9LHsieCI6MTE5OS4wOTUsInkiOjUyNX1d" marker-end="url(#my-svg_class-dependencyEnd)"/><path d="M287.508,777.507L295.645,780.506C303.781,783.505,320.055,789.502,361.699,792.501C403.344,795.5,470.359,795.5,538.387,795.5C606.414,795.5,675.453,795.5,743.223,795.5C810.993,795.5,877.495,795.5,942.583,795.5C1007.672,795.5,1071.348,795.5,1113.102,787.065C1154.857,778.629,1174.691,761.758,1184.608,753.323L1194.525,744.888" id="id_User_Message_5" class="edge-thickness-normal edge-pattern-solid relation" style=";;;" data-edge="true" data-et="edge" data-id="id_User_Message_5" data-points="W3sieCI6Mjg3LjUwNzgxMjUsInkiOjc3Ny41MDcwMjIyNjgyNTQ4fSx7IngiOjMzNi4zMjgxMjUsInkiOjc5NS41fSx7IngiOjUzNy4zNzUsInkiOjc5NS41fSx7IngiOjc0NC40OTIxODc1LCJ5Ijo3OTUuNX0seyJ4Ijo5NDMuOTk2MDkzNzUsInkiOjc5NS41fSx7IngiOjExMzUuMDIzNDM3NSwieSI6Nzk1LjV9LHsieCI6MTE5OS4wOTUsInkiOjc0MX1d" marker-end="url(#my-svg_class-dependencyEnd)"/><path d="M686.992,592.739L696.576,597.783C706.159,602.826,725.326,612.913,749.614,622.784C773.902,632.656,803.312,642.311,818.016,647.139L832.721,651.967" id="id_Workspace_WorkspaceUser_6" class="edge-thickness-normal edge-pattern-solid relation" style=";;;" data-edge="true" data-et="edge" data-id="id_Workspace_WorkspaceUser_6" data-points="W3sieCI6Njg2Ljk5MjE4NzUsInkiOjU5Mi43MzkzNTM0NzU5MTU3fSx7IngiOjc0NC40OTIxODc1LCJ5Ijo2MjN9LHsieCI6ODM4LjQyMTg3NSwieSI6NjUzLjgzODQ2NjUwODcyMjh9XQ==" marker-end="url(#my-svg_class-dependencyEnd)"/><path d="M287.508,726L295.645,726C303.781,726,320.055,726,361.699,726C403.344,726,470.359,726,538.387,726C606.414,726,675.453,726,724.645,723.242C773.837,720.484,803.181,714.969,817.853,712.211L832.525,709.453" id="id_User_WorkspaceUser_7" class="edge-thickness-normal edge-pattern-solid relation" style=";;;" data-edge="true" data-et="edge" data-id="id_User_WorkspaceUser_7" data-points="W3sieCI6Mjg3LjUwNzgxMjUsInkiOjcyNn0seyJ4IjozMzYuMzI4MTI1LCJ5Ijo3MjZ9LHsieCI6NTM3LjM3NSwieSI6NzI2fSx7IngiOjc0NC40OTIxODc1LCJ5Ijo3MjZ9LHsieCI6ODM4LjQyMTg3NSwieSI6NzA4LjM0NDM4OTQwMzQwMjl9XQ==" marker-end="url(#my-svg_class-dependencyEnd)"/><path d="M997.152,566.5L1020.13,608C1043.109,649.5,1089.066,732.5,1127.848,782.686C1166.63,832.872,1198.237,850.244,1214.04,858.93L1229.843,867.616" id="id_Channel_ChannelUser_8" class="edge-thickness-normal edge-pattern-solid relation" style=";;;" data-edge="true" data-et="edge" data-id="id_Channel_ChannelUser_8" data-points="W3sieCI6OTk3LjE1MTUyODUzMjYwODcsInkiOjU2Ni41fSx7IngiOjExMzUuMDIzNDM3NSwieSI6ODE1LjV9LHsieCI6MTIzNS4xMDE1NjI1LCJ5Ijo4NzAuNTA1NTIwNzk0OTk0NX1d" marker-end="url(#my-svg_class-dependencyEnd)"/><path d="M258.409,846L271.395,860.083C284.382,874.167,310.355,902.333,356.849,916.417C403.344,930.5,470.359,930.5,538.387,930.5C606.414,930.5,675.453,930.5,743.223,930.5C810.993,930.5,877.495,930.5,942.583,930.5C1007.672,930.5,1071.348,930.5,1118.867,929.679C1166.386,928.858,1197.748,927.217,1213.429,926.396L1229.11,925.575" id="id_User_ChannelUser_9" class="edge-thickness-normal edge-pattern-solid relation" style=";;;" data-edge="true" data-et="edge" data-id="id_User_ChannelUser_9" data-points="W3sieCI6MjU4LjQwODcwNDUzODUwODYsInkiOjg0Nn0seyJ4IjozMzYuMzI4MTI1LCJ5Ijo5MzAuNX0seyJ4Ijo1MzcuMzc1LCJ5Ijo5MzAuNX0seyJ4Ijo3NDQuNDkyMTg3NSwieSI6OTMwLjV9LHsieCI6OTQzLjk5NjA5Mzc1LCJ5Ijo5MzAuNX0seyJ4IjoxMTM1LjAyMzQzNzUsInkiOjkzMC41fSx7IngiOjEyMzUuMTAxNTYyNSwieSI6OTI1LjI2MTM3ODk3MTkwNTN9XQ==" marker-end="url(#my-svg_class-dependencyEnd)"/></g><g class="edgeLabels"><g class="edgeLabel" transform="translate(336.328125, 188)"><g class="label" data-id="id_User_UserProfile_1" transform="translate(-23.8203125, -12)"><foreignObject width="47.640625" height="24"><div xmlns="http://www.w3.org/1999/xhtml" class="labelBkg" style="display: table-cell; white-space: nowrap; line-height: 1.5; max-width: 200px; text-align: center;"><span class="edgeLabel"><p>profile</p></span></div></foreignObject></g></g><g class="edgeLabel" transform="translate(336.328125, 514)"><g class="label" data-id="id_User_Workspace_2" transform="translate(-17.859375, -12)"><foreignObject width="35.71875" height="24"><div xmlns="http://www.w3.org/1999/xhtml" class="labelBkg" style="display: table-cell; white-space: nowrap; line-height: 1.5; max-width: 200px; text-align: center;"><span class="edgeLabel"><p>owns</p></span></div></foreignObject></g></g><g class="edgeLabel" transform="translate(744.4921875, 470.5)"><g class="label" data-id="id_Workspace_Channel_3" transform="translate(-29.890625, -12)"><foreignObject width="59.78125" height="24"><div xmlns="http://www.w3.org/1999/xhtml" class="labelBkg" style="display: table-cell; white-space: nowrap; line-height: 1.5; max-width: 200px; text-align: center;"><span class="edgeLabel"><p>contains</p></span></div></foreignObject></g></g><g class="edgeLabel" transform="translate(1135.0234375, 470.5)"><g class="label" data-id="id_Channel_Message_4" transform="translate(-21.4140625, -12)"><foreignObject width="42.828125" height="24"><div xmlns="http://www.w3.org/1999/xhtml" class="labelBkg" style="display: table-cell; white-space: nowrap; line-height: 1.5; max-width: 200px; text-align: center;"><span class="edgeLabel"><p>stores</p></span></div></foreignObject></g></g><g class="edgeLabel" transform="translate(744.4921875, 795.5)"><g class="label" data-id="id_User_Message_5" transform="translate(-26.7578125, -12)"><foreignObject width="53.515625" height="24"><div xmlns="http://www.w3.org/1999/xhtml" class="labelBkg" style="display: table-cell; white-space: nowrap; line-height: 1.5; max-width: 200px; text-align: center;"><span class="edgeLabel"><p>authors</p></span></div></foreignObject></g></g><g class="edgeLabel"><g class="label" data-id="id_Workspace_WorkspaceUser_6" transform="translate(0, 0)"><foreignObject width="0" height="0"><div xmlns="http://www.w3.org/1999/xhtml" class="labelBkg" style="display: table-cell; white-space: nowrap; line-height: 1.5; max-width: 200px; text-align: center;"><span class="edgeLabel"></span></div></foreignObject></g></g><g class="edgeLabel"><g class="label" data-id="id_User_WorkspaceUser_7" transform="translate(0, 0)"><foreignObject width="0" height="0"><div xmlns="http://www.w3.org/1999/xhtml" class="labelBkg" style="display: table-cell; white-space: nowrap; line-height: 1.5; max-width: 200px; text-align: center;"><span class="edgeLabel"></span></div></foreignObject></g></g><g class="edgeLabel"><g class="label" data-id="id_Channel_ChannelUser_8" transform="translate(0, 0)"><foreignObject width="0" height="0"><div xmlns="http://www.w3.org/1999/xhtml" class="labelBkg" style="display: table-cell; white-space: nowrap; line-height: 1.5; max-width: 200px; text-align: center;"><span class="edgeLabel"></span></div></foreignObject></g></g><g class="edgeLabel"><g class="label" data-id="id_User_ChannelUser_9" transform="translate(0, 0)"><foreignObject width="0" height="0"><div xmlns="http://www.w3.org/1999/xhtml" class="labelBkg" style="display: table-cell; white-space: nowrap; line-height: 1.5; max-width: 200px; text-align: center;"><span class="edgeLabel"></span></div></foreignObject></g></g><g class="edgeTerminals" transform="translate(209.7593246008442, 594.4467877964399)"><g class="inner" transform="translate(0, 0)"><foreignObject style="width: 9px; height: 12px;"><div xmlns="http://www.w3.org/1999/xhtml" style="display: inline-block; padding-right: 1px; white-space: nowrap;"><span class="edgeLabel">1</span></div></foreignObject></g></g><g class="edgeTerminals" transform="translate(277.3326023584347, 602.8935996524625)"><g class="inner" transform="translate(0, 0)"><foreignObject style="width: 9px; height: 12px;"><div xmlns="http://www.w3.org/1999/xhtml" style="display: inline-block; padding-right: 1px; white-space: nowrap;"><span class="edgeLabel">1</span></div></foreignObject></g></g><g class="edgeTerminals" transform="translate(707.2016580425964, 493.65924390512964)"><g class="inner" transform="translate(0, 0)"><foreignObject style="width: 9px; height: 12px;"><div xmlns="http://www.w3.org/1999/xhtml" style="display: inline-block; padding-right: 1px; white-space: nowrap;"><span class="edgeLabel">1</span></div></foreignObject></g></g><g class="edgeTerminals" transform="translate(1106.1093775, 485.5)"><g class="inner" transform="translate(0, 0)"><foreignObject style="width: 9px; height: 12px;"><div xmlns="http://www.w3.org/1999/xhtml" style="display: inline-block; padding-right: 1px; white-space: nowrap;"><span class="edgeLabel">1</span></div></foreignObject></g></g><g class="edgeTerminals" transform="translate(298.74085768734466, 797.6333400241605)"><g class="inner" transform="translate(0, 0)"><foreignObject style="width: 9px; height: 12px;"><div xmlns="http://www.w3.org/1999/xhtml" style="display: inline-block; padding-right: 1px; white-space: nowrap;"><span class="edgeLabel">1</span></div></foreignObject></g></g><g class="edgeTerminals" transform="translate(695.4927905245235, 614.1633986253906)"><g class="inner" transform="translate(0, 0)"><foreignObject style="width: 9px; height: 12px;"><div xmlns="http://www.w3.org/1999/xhtml" style="display: inline-block; padding-right: 1px; white-space: nowrap;"><span class="edgeLabel">1</span></div></foreignObject></g></g><g class="edgeTerminals" transform="translate(305.00781125000003, 741)"><g class="inner" transform="translate(0, 0)"><foreignObject style="width: 9px; height: 12px;"><div xmlns="http://www.w3.org/1999/xhtml" style="display: inline-block; padding-right: 1px; white-space: nowrap;"><span class="edgeLabel">1</span></div></foreignObject></g></g><g class="edgeTerminals" transform="translate(992.5059258470301, 589.0758362589195)"><g class="inner" transform="translate(0, 0)"><foreignObject style="width: 9px; height: 12px;"><div xmlns="http://www.w3.org/1999/xhtml" style="display: inline-block; padding-right: 1px; white-space: nowrap;"><span class="edgeLabel">1</span></div></foreignObject></g></g><g class="edgeTerminals" transform="translate(259.2446909657879, 869.0336973365293)"><g class="inner" transform="translate(0, 0)"><foreignObject style="width: 9px; height: 12px;"><div xmlns="http://www.w3.org/1999/xhtml" style="display: inline-block; padding-right: 1px; white-space: nowrap;"><span class="edgeLabel">1</span></div></foreignObject></g></g><g class="edgeTerminals" transform="translate(362.64843874999997, 168)"><g class="inner" transform="translate(0, 0)"/><foreignObject style="width: 36px; height: 12px;"><div xmlns="http://www.w3.org/1999/xhtml" style="display: inline-block; padding-right: 1px; white-space: nowrap;"><span class="edgeLabel">0..1</span></div></foreignObject></g><g class="edgeTerminals" transform="translate(365.25781125000003, 494)"><g class="inner" transform="translate(0, 0)"/><foreignObject style="width: 36px; height: 12px;"><div xmlns="http://www.w3.org/1999/xhtml" style="display: inline-block; padding-right: 1px; white-space: nowrap;"><span class="edgeLabel">0..*</span></div></foreignObject></g><g class="edgeTerminals" transform="translate(776.88281125, 450.5)"><g class="inner" transform="translate(0, 0)"/><foreignObject style="width: 36px; height: 12px;"><div xmlns="http://www.w3.org/1999/xhtml" style="display: inline-block; padding-right: 1px; white-space: nowrap;"><span class="edgeLabel">0..*</span></div></foreignObject></g><g class="edgeTerminals" transform="translate(1190.4838673759857, 497.23577913708874)"><g class="inner" transform="translate(0, 0)"/><foreignObject style="width: 36px; height: 12px;"><div xmlns="http://www.w3.org/1999/xhtml" style="display: inline-block; padding-right: 1px; white-space: nowrap;"><span class="edgeLabel">0..*</span></div></foreignObject></g><g class="edgeTerminals" transform="translate(1171.0463026240143, 735.9129391370886)"><g class="inner" transform="translate(0, 0)"/><foreignObject style="width: 36px; height: 12px;"><div xmlns="http://www.w3.org/1999/xhtml" style="display: inline-block; padding-right: 1px; white-space: nowrap;"><span class="edgeLabel">0..*</span></div></foreignObject></g><g class="edgeTerminals" transform="translate(821.4740440307086, 629.1280805942333)"><g class="inner" transform="translate(0, 0)"/><foreignObject style="width: 36px; height: 12px;"><div xmlns="http://www.w3.org/1999/xhtml" style="display: inline-block; padding-right: 1px; white-space: nowrap;"><span class="edgeLabel">0..*</span></div></foreignObject></g><g class="edgeTerminals" transform="translate(813.452099852016, 691.8353483746415)"><g class="inner" transform="translate(0, 0)"/><foreignObject style="width: 36px; height: 12px;"><div xmlns="http://www.w3.org/1999/xhtml" style="display: inline-block; padding-right: 1px; white-space: nowrap;"><span class="edgeLabel">0..*</span></div></foreignObject></g><g class="edgeTerminals" transform="translate(1221.9903646558103, 843.9310346619956)"><g class="inner" transform="translate(0, 0)"/><foreignObject style="width: 36px; height: 12px;"><div xmlns="http://www.w3.org/1999/xhtml" style="display: inline-block; padding-right: 1px; white-space: nowrap;"><span class="edgeLabel">0..*</span></div></foreignObject></g><g class="edgeTerminals" transform="translate(1211.8413802010755, 906.1966775818846)"><g class="inner" transform="translate(0, 0)"/><foreignObject style="width: 36px; height: 12px;"><div xmlns="http://www.w3.org/1999/xhtml" style="display: inline-block; padding-right: 1px; white-space: nowrap;"><span class="edgeLabel">0..*</span></div></foreignObject></g></g><g class="nodes"><g class="node default" id="classId-User-0" transform="translate(147.75390625, 726)"><g class="basic label-container"><path d="M-139.75390625 -120 L139.75390625 -120 L139.75390625 120 L-139.75390625 120" stroke="none" stroke-width="0" fill="#1f2020" style=""/><path d="M-139.75390625 -120 C-30.440828841541332 -120, 78.87224856691734 -120, 139.75390625 -120 M-139.75390625 -120 C-47.79048872854737 -120, 44.17292879290525 -120, 139.75390625 -120 M139.75390625 -120 C139.75390625 -27.92067312454779, 139.75390625 64.15865375090442, 139.75390625 120 M139.75390625 -120 C139.75390625 -60.03248803587823, 139.75390625 -0.0649760717564618, 139.75390625 120 M139.75390625 120 C73.66768014637272 120, 7.581454042745435 120, -139.75390625 120 M139.75390625 120 C67.05880563269963 120, -5.636294984600738 120, -139.75390625 120 M-139.75390625 120 C-139.75390625 33.20803023102819, -139.75390625 -53.58393953794362, -139.75390625 -120 M-139.75390625 120 C-139.75390625 46.09682003094068, -139.75390625 -27.806359938118646, -139.75390625 -120" stroke="#ccc" stroke-width="1.3" fill="none" stroke-dasharray="0 0" style=""/></g><g class="annotation-group text" transform="translate(0, -96)"/><g class="label-group text" transform="translate(-16.8828125, -96)"><g class="label" style="font-weight: bolder" transform="translate(0,-12)"><foreignObject width="33.765625" height="24"><div xmlns="http://www.w3.org/1999/xhtml" style="display: table-cell; white-space: nowrap; line-height: 1.5; max-width: 82px; text-align: center;"><span class="nodeLabel markdown-node-label" style=""><p>User</p></span></div></foreignObject></g></g><g class="members-group text" transform="translate(-127.75390625, -48)"><g class="label" style="" transform="translate(0,-12)"><foreignObject width="46.34375" height="24"><div xmlns="http://www.w3.org/1999/xhtml" style="display: table-cell; white-space: nowrap; line-height: 1.5; max-width: 99px; text-align: center;"><span class="nodeLabel markdown-node-label" style=""><p>+int id</p></span></div></foreignObject></g><g class="label" style="" transform="translate(0,12)"><foreignObject width="93.28125" height="24"><div xmlns="http://www.w3.org/1999/xhtml" style="display: table-cell; white-space: nowrap; line-height: 1.5; max-width: 141px; text-align: center;"><span class="nodeLabel markdown-node-label" style=""><p>+string email</p></span></div></foreignObject></g><g class="label" style="" transform="translate(0,36)"><foreignObject width="77.609375" height="24"><div xmlns="http://www.w3.org/1999/xhtml" style="display: table-cell; white-space: nowrap; line-height: 1.5; max-width: 126px; text-align: center;"><span class="nodeLabel markdown-node-label" style=""><p>+json roles</p></span></div></foreignObject></g><g class="label" style="" transform="translate(0,60)"><foreignObject width="119.484375" height="24"><div xmlns="http://www.w3.org/1999/xhtml" style="display: table-cell; white-space: nowrap; line-height: 1.5; max-width: 166px; text-align: center;"><span class="nodeLabel markdown-node-label" style=""><p>+string password</p></span></div></foreignObject></g><g class="label" style="" transform="translate(0,84)"><foreignObject width="234.921875" height="24"><div xmlns="http://www.w3.org/1999/xhtml" style="display: table-cell; white-space: nowrap; line-height: 1.5; max-width: 263px; text-align: center;"><span class="nodeLabel markdown-node-label" style=""><p>+datetime_immutable createdAt</p></span></div></foreignObject></g><g class="label" style="" transform="translate(0,108)"><foreignObject width="238.625" height="24"><div xmlns="http://www.w3.org/1999/xhtml" style="display: table-cell; white-space: nowrap; line-height: 1.5; max-width: 267px; text-align: center;"><span class="nodeLabel markdown-node-label" style=""><p>+datetime_immutable updatedAt</p></span></div></foreignObject></g></g><g class="methods-group text" transform="translate(-127.75390625, 120)"/><g class="divider" style=""><path d="M-139.75390625 -72 C-62.96815991894687 -72, 13.817586412106266 -72, 139.75390625 -72 M-139.75390625 -72 C-78.16572338446102 -72, -16.57754051892205 -72, 139.75390625 -72" stroke="#ccc" stroke-width="1.3" fill="none" stroke-dasharray="0 0" style=""/></g><g class="divider" style=""><path d="M-139.75390625 96 C-75.55341716751924 96, -11.352928085038485 96, 139.75390625 96 M-139.75390625 96 C-61.94039235943349 96, 15.873121531133023 96, 139.75390625 96" stroke="#ccc" stroke-width="1.3" fill="none" stroke-dasharray="0 0" style=""/></g></g><g class="node default" id="classId-UserProfile-1" transform="translate(537.375, 188)"><g class="basic label-container"><path d="M-152.2265625 -180 L152.2265625 -180 L152.2265625 180 L-152.2265625 180" stroke="none" stroke-width="0" fill="#1f2020" style=""/><path d="M-152.2265625 -180 C-75.51188348048294 -180, 1.2027955390341276 -180, 152.2265625 -180 M-152.2265625 -180 C-43.52416502125968 -180, 65.17823245748065 -180, 152.2265625 -180 M152.2265625 -180 C152.2265625 -88.56280570372958, 152.2265625 2.8743885925408392, 152.2265625 180 M152.2265625 -180 C152.2265625 -84.56145147037714, 152.2265625 10.877097059245727, 152.2265625 180 M152.2265625 180 C31.805956685996648 180, -88.6146491280067 180, -152.2265625 180 M152.2265625 180 C46.578210062463114 180, -59.07014237507377 180, -152.2265625 180 M-152.2265625 180 C-152.2265625 71.83964540661373, -152.2265625 -36.32070918677255, -152.2265625 -180 M-152.2265625 180 C-152.2265625 99.18817576145987, -152.2265625 18.376351522919748, -152.2265625 -180" stroke="#ccc" stroke-width="1.3" fill="none" stroke-dasharray="0 0" style=""/></g><g class="annotation-group text" transform="translate(0, -156)"/><g class="label-group text" transform="translate(-41.828125, -156)"><g class="label" style="font-weight: bolder" transform="translate(0,-12)"><foreignObject width="83.65625" height="24"><div xmlns="http://www.w3.org/1999/xhtml" style="display: table-cell; white-space: nowrap; line-height: 1.5; max-width: 125px; text-align: center;"><span class="nodeLabel markdown-node-label" style=""><p>UserProfile</p></span></div></foreignObject></g></g><g class="members-group text" transform="translate(-140.2265625, -108)"><g class="label" style="" transform="translate(0,-12)"><foreignObject width="46.34375" height="24"><div xmlns="http://www.w3.org/1999/xhtml" style="display: table-cell; white-space: nowrap; line-height: 1.5; max-width: 99px; text-align: center;"><span class="nodeLabel markdown-node-label" style=""><p>+int id</p></span></div></foreignObject></g><g class="label" style="" transform="translate(0,12)"><foreignObject width="84.890625" height="24"><div xmlns="http://www.w3.org/1999/xhtml" style="display: table-cell; white-space: nowrap; line-height: 1.5; max-width: 133px; text-align: center;"><span class="nodeLabel markdown-node-label" style=""><p>+int user_id</p></span></div></foreignObject></g><g class="label" style="" transform="translate(0,36)"><foreignObject width="123.734375" height="24"><div xmlns="http://www.w3.org/1999/xhtml" style="display: table-cell; white-space: nowrap; line-height: 1.5; max-width: 169px; text-align: center;"><span class="nodeLabel markdown-node-label" style=""><p>+string firstName</p></span></div></foreignObject></g><g class="label" style="" transform="translate(0,60)"><foreignObject width="120.15625" height="24"><div xmlns="http://www.w3.org/1999/xhtml" style="display: table-cell; white-space: nowrap; line-height: 1.5; max-width: 165px; text-align: center;"><span class="nodeLabel markdown-node-label" style=""><p>+string lastName</p></span></div></foreignObject></g><g class="label" style="" transform="translate(0,84)"><foreignObject width="113.671875" height="24"><div xmlns="http://www.w3.org/1999/xhtml" style="display: table-cell; white-space: nowrap; line-height: 1.5; max-width: 156px; text-align: center;"><span class="nodeLabel markdown-node-label" style=""><p>+date birthDate</p></span></div></foreignObject></g><g class="label" style="" transform="translate(0,108)"><foreignObject width="153.390625" height="24"><div xmlns="http://www.w3.org/1999/xhtml" style="display: table-cell; white-space: nowrap; line-height: 1.5; max-width: 197px; text-align: center;"><span class="nodeLabel markdown-node-label" style=""><p>+string phoneNumber</p></span></div></foreignObject></g><g class="label" style="" transform="translate(0,132)"><foreignObject width="80.3125" height="24"><div xmlns="http://www.w3.org/1999/xhtml" style="display: table-cell; white-space: nowrap; line-height: 1.5; max-width: 130px; text-align: center;"><span class="nodeLabel markdown-node-label" style=""><p>+string city</p></span></div></foreignObject></g><g class="label" style="" transform="translate(0,156)"><foreignObject width="108.03125" height="24"><div xmlns="http://www.w3.org/1999/xhtml" style="display: table-cell; white-space: nowrap; line-height: 1.5; max-width: 155px; text-align: center;"><span class="nodeLabel markdown-node-label" style=""><p>+string country</p></span></div></foreignObject></g><g class="label" style="" transform="translate(0,180)"><foreignObject width="64.703125" height="24"><div xmlns="http://www.w3.org/1999/xhtml" style="display: table-cell; white-space: nowrap; line-height: 1.5; max-width: 113px; text-align: center;"><span class="nodeLabel markdown-node-label" style=""><p>+text bio</p></span></div></foreignObject></g><g class="label" style="" transform="translate(0,204)"><foreignObject width="234.921875" height="24"><div xmlns="http://www.w3.org/1999/xhtml" style="display: table-cell; white-space: nowrap; line-height: 1.5; max-width: 263px; text-align: center;"><span class="nodeLabel markdown-node-label" style=""><p>+datetime_immutable createdAt</p></span></div></foreignObject></g><g class="label" style="" transform="translate(0,228)"><foreignObject width="238.625" height="24"><div xmlns="http://www.w3.org/1999/xhtml" style="display: table-cell; white-space: nowrap; line-height: 1.5; max-width: 267px; text-align: center;"><span class="nodeLabel markdown-node-label" style=""><p>+datetime_immutable updatedAt</p></span></div></foreignObject></g></g><g class="methods-group text" transform="translate(-140.2265625, 180)"/><g class="divider" style=""><path d="M-152.2265625 -132 C-44.65471399904767 -132, 62.917134501904656 -132, 152.2265625 -132 M-152.2265625 -132 C-48.151149967509525 -132, 55.92426256498095 -132, 152.2265625 -132" stroke="#ccc" stroke-width="1.3" fill="none" stroke-dasharray="0 0" style=""/></g><g class="divider" style=""><path d="M-152.2265625 156 C-33.92522813752255 156, 84.3761062249549 156, 152.2265625 156 M-152.2265625 156 C-57.11675394922284 156, 37.99305460155432 156, 152.2265625 156" stroke="#ccc" stroke-width="1.3" fill="none" stroke-dasharray="0 0" style=""/></g></g><g class="node default" id="classId-Workspace-2" transform="translate(537.375, 514)"><g class="basic label-container"><path d="M-149.6171875 -96 L149.6171875 -96 L149.6171875 96 L-149.6171875 96" stroke="none" stroke-width="0" fill="#1f2020" style=""/><path d="M-149.6171875 -96 C-72.31721001343067 -96, 4.982767473138665 -96, 149.6171875 -96 M-149.6171875 -96 C-87.80863883463141 -96, -26.000090169262805 -96, 149.6171875 -96 M149.6171875 -96 C149.6171875 -23.53486102089971, 149.6171875 48.93027795820058, 149.6171875 96 M149.6171875 -96 C149.6171875 -22.592574102411362, 149.6171875 50.814851795177276, 149.6171875 96 M149.6171875 96 C58.09698352211059 96, -33.42322045577882 96, -149.6171875 96 M149.6171875 96 C80.29024396497964 96, 10.963300429959276 96, -149.6171875 96 M-149.6171875 96 C-149.6171875 24.44662841120069, -149.6171875 -47.10674317759862, -149.6171875 -96 M-149.6171875 96 C-149.6171875 42.21418216943675, -149.6171875 -11.571635661126507, -149.6171875 -96" stroke="#ccc" stroke-width="1.3" fill="none" stroke-dasharray="0 0" style=""/></g><g class="annotation-group text" transform="translate(0, -72)"/><g class="label-group text" transform="translate(-40.3125, -72)"><g class="label" style="font-weight: bolder" transform="translate(0,-12)"><foreignObject width="80.625" height="24"><div xmlns="http://www.w3.org/1999/xhtml" style="display: table-cell; white-space: nowrap; line-height: 1.5; max-width: 121px; text-align: center;"><span class="nodeLabel markdown-node-label" style=""><p>Workspace</p></span></div></foreignObject></g></g><g class="members-group text" transform="translate(-137.6171875, -24)"><g class="label" style="" transform="translate(0,-12)"><foreignObject width="46.34375" height="24"><div xmlns="http://www.w3.org/1999/xhtml" style="display: table-cell; white-space: nowrap; line-height: 1.5; max-width: 99px; text-align: center;"><span class="nodeLabel markdown-node-label" style=""><p>+int id</p></span></div></foreignObject></g><g class="label" style="" transform="translate(0,12)"><foreignObject width="92.75" height="24"><div xmlns="http://www.w3.org/1999/xhtml" style="display: table-cell; white-space: nowrap; line-height: 1.5; max-width: 140px; text-align: center;"><span class="nodeLabel markdown-node-label" style=""><p>+string name</p></span></div></foreignObject></g><g class="label" style="" transform="translate(0,36)"><foreignObject width="98.90625" height="24"><div xmlns="http://www.w3.org/1999/xhtml" style="display: table-cell; white-space: nowrap; line-height: 1.5; max-width: 147px; text-align: center;"><span class="nodeLabel markdown-node-label" style=""><p>+int owner_id</p></span></div></foreignObject></g><g class="label" style="" transform="translate(0,60)"><foreignObject width="234.921875" height="24"><div xmlns="http://www.w3.org/1999/xhtml" style="display: table-cell; white-space: nowrap; line-height: 1.5; max-width: 263px; text-align: center;"><span class="nodeLabel markdown-node-label" style=""><p>+datetime_immutable createdAt</p></span></div></foreignObject></g></g><g class="methods-group text" transform="translate(-137.6171875, 96)"/><g class="divider" style=""><path d="M-149.6171875 -48 C-55.39078156995163 -48, 38.835624360096745 -48, 149.6171875 -48 M-149.6171875 -48 C-45.904087249013514 -48, 57.80901300197297 -48, 149.6171875 -48" stroke="#ccc" stroke-width="1.3" fill="none" stroke-dasharray="0 0" style=""/></g><g class="divider" style=""><path d="M-149.6171875 72 C-77.88654367582127 72, -6.155899851642545 72, 149.6171875 72 M-149.6171875 72 C-44.13457161789009 72, 61.34804426421982 72, 149.6171875 72" stroke="#ccc" stroke-width="1.3" fill="none" stroke-dasharray="0 0" style=""/></g></g><g class="node default" id="classId-Channel-3" transform="translate(943.99609375, 470.5)"><g class="basic label-container"><path d="M-144.61328125 -96 L144.61328125 -96 L144.61328125 96 L-144.61328125 96" stroke="none" stroke-width="0" fill="#1f2020" style=""/><path d="M-144.61328125 -96 C-51.79516306997587 -96, 41.02295511004826 -96, 144.61328125 -96 M-144.61328125 -96 C-62.70961453139071 -96, 19.194052187218574 -96, 144.61328125 -96 M144.61328125 -96 C144.61328125 -27.33214245726208, 144.61328125 41.33571508547584, 144.61328125 96 M144.61328125 -96 C144.61328125 -46.50629962567033, 144.61328125 2.98740074865934, 144.61328125 96 M144.61328125 96 C75.70491505152948 96, 6.796548853058965 96, -144.61328125 96 M144.61328125 96 C42.840435214586975 96, -58.93241082082605 96, -144.61328125 96 M-144.61328125 96 C-144.61328125 32.37798475525212, -144.61328125 -31.244030489495756, -144.61328125 -96 M-144.61328125 96 C-144.61328125 24.853768389087648, -144.61328125 -46.292463221824704, -144.61328125 -96" stroke="#ccc" stroke-width="1.3" fill="none" stroke-dasharray="0 0" style=""/></g><g class="annotation-group text" transform="translate(0, -72)"/><g class="label-group text" transform="translate(-30.3046875, -72)"><g class="label" style="font-weight: bolder" transform="translate(0,-12)"><foreignObject width="60.609375" height="24"><div xmlns="http://www.w3.org/1999/xhtml" style="display: table-cell; white-space: nowrap; line-height: 1.5; max-width: 104px; text-align: center;"><span class="nodeLabel markdown-node-label" style=""><p>Channel</p></span></div></foreignObject></g></g><g class="members-group text" transform="translate(-132.61328125, -24)"><g class="label" style="" transform="translate(0,-12)"><foreignObject width="46.34375" height="24"><div xmlns="http://www.w3.org/1999/xhtml" style="display: table-cell; white-space: nowrap; line-height: 1.5; max-width: 99px; text-align: center;"><span class="nodeLabel markdown-node-label" style=""><p>+int id</p></span></div></foreignObject></g><g class="label" style="" transform="translate(0,12)"><foreignObject width="92.75" height="24"><div xmlns="http://www.w3.org/1999/xhtml" style="display: table-cell; white-space: nowrap; line-height: 1.5; max-width: 140px; text-align: center;"><span class="nodeLabel markdown-node-label" style=""><p>+string name</p></span></div></foreignObject></g><g class="label" style="" transform="translate(0,36)"><foreignObject width="129.953125" height="24"><div xmlns="http://www.w3.org/1999/xhtml" style="display: table-cell; white-space: nowrap; line-height: 1.5; max-width: 175px; text-align: center;"><span class="nodeLabel markdown-node-label" style=""><p>+int workspace_id</p></span></div></foreignObject></g><g class="label" style="" transform="translate(0,60)"><foreignObject width="234.921875" height="24"><div xmlns="http://www.w3.org/1999/xhtml" style="display: table-cell; white-space: nowrap; line-height: 1.5; max-width: 263px; text-align: center;"><span class="nodeLabel markdown-node-label" style=""><p>+datetime_immutable createdAt</p></span></div></foreignObject></g></g><g class="methods-group text" transform="translate(-132.61328125, 96)"/><g class="divider" style=""><path d="M-144.61328125 -48 C-79.91959894453797 -48, -15.225916639075933 -48, 144.61328125 -48 M-144.61328125 -48 C-42.3020739511318 -48, 60.009133347736395 -48, 144.61328125 -48" stroke="#ccc" stroke-width="1.3" fill="none" stroke-dasharray="0 0" style=""/></g><g class="divider" style=""><path d="M-144.61328125 72 C-72.38331956155007 72, -0.15335787310013416 72, 144.61328125 72 M-144.61328125 72 C-44.88024363760489 72, 54.85279397479022 72, 144.61328125 72" stroke="#ccc" stroke-width="1.3" fill="none" stroke-dasharray="0 0" style=""/></g></g><g class="node default" id="classId-Message-4" transform="translate(1326.0625, 633)"><g class="basic label-container"><path d="M-144.625 -108 L144.625 -108 L144.625 108 L-144.625 108" stroke="none" stroke-width="0" fill="#1f2020" style=""/><path d="M-144.625 -108 C-60.50566941035885 -108, 23.613661179282303 -108, 144.625 -108 M-144.625 -108 C-41.22350819675877 -108, 62.17798360648246 -108, 144.625 -108 M144.625 -108 C144.625 -48.02210214300112, 144.625 11.955795713997759, 144.625 108 M144.625 -108 C144.625 -51.01297927293133, 144.625 5.9740414541373354, 144.625 108 M144.625 108 C75.41714908735584 108, 6.209298174711677 108, -144.625 108 M144.625 108 C43.98059574444318 108, -56.66380851111364 108, -144.625 108 M-144.625 108 C-144.625 49.31230252812746, -144.625 -9.375394943745079, -144.625 -108 M-144.625 108 C-144.625 64.71008513667428, -144.625 21.420170273348575, -144.625 -108" stroke="#ccc" stroke-width="1.3" fill="none" stroke-dasharray="0 0" style=""/></g><g class="annotation-group text" transform="translate(0, -84)"/><g class="label-group text" transform="translate(-30.328125, -84)"><g class="label" style="font-weight: bolder" transform="translate(0,-12)"><foreignObject width="60.65625" height="24"><div xmlns="http://www.w3.org/1999/xhtml" style="display: table-cell; white-space: nowrap; line-height: 1.5; max-width: 107px; text-align: center;"><span class="nodeLabel markdown-node-label" style=""><p>Message</p></span></div></foreignObject></g></g><g class="members-group text" transform="translate(-132.625, -36)"><g class="label" style="" transform="translate(0,-12)"><foreignObject width="46.34375" height="24"><div xmlns="http://www.w3.org/1999/xhtml" style="display: table-cell; white-space: nowrap; line-height: 1.5; max-width: 99px; text-align: center;"><span class="nodeLabel markdown-node-label" style=""><p>+int id</p></span></div></foreignObject></g><g class="label" style="" transform="translate(0,12)"><foreignObject width="98.046875" height="24"><div xmlns="http://www.w3.org/1999/xhtml" style="display: table-cell; white-space: nowrap; line-height: 1.5; max-width: 140px; text-align: center;"><span class="nodeLabel markdown-node-label" style=""><p>+text content</p></span></div></foreignObject></g><g class="label" style="" transform="translate(0,36)"><foreignObject width="101.765625" height="24"><div xmlns="http://www.w3.org/1999/xhtml" style="display: table-cell; white-space: nowrap; line-height: 1.5; max-width: 148px; text-align: center;"><span class="nodeLabel markdown-node-label" style=""><p>+int author_id</p></span></div></foreignObject></g><g class="label" style="" transform="translate(0,60)"><foreignObject width="110.734375" height="24"><div xmlns="http://www.w3.org/1999/xhtml" style="display: table-cell; white-space: nowrap; line-height: 1.5; max-width: 157px; text-align: center;"><span class="nodeLabel markdown-node-label" style=""><p>+int channel_id</p></span></div></foreignObject></g><g class="label" style="" transform="translate(0,84)"><foreignObject width="234.921875" height="24"><div xmlns="http://www.w3.org/1999/xhtml" style="display: table-cell; white-space: nowrap; line-height: 1.5; max-width: 263px; text-align: center;"><span class="nodeLabel markdown-node-label" style=""><p>+datetime_immutable createdAt</p></span></div></foreignObject></g></g><g class="methods-group text" transform="translate(-132.625, 108)"/><g class="divider" style=""><path d="M-144.625 -60 C-50.877322941049115 -60, 42.87035411790177 -60, 144.625 -60 M-144.625 -60 C-37.47018052430006 -60, 69.68463895139988 -60, 144.625 -60" stroke="#ccc" stroke-width="1.3" fill="none" stroke-dasharray="0 0" style=""/></g><g class="divider" style=""><path d="M-144.625 84 C-51.67398748810909 84, 41.27702502378182 84, 144.625 84 M-144.625 84 C-54.454378073172606 84, 35.71624385365479 84, 144.625 84" stroke="#ccc" stroke-width="1.3" fill="none" stroke-dasharray="0 0" style=""/></g></g><g class="node default" id="classId-WorkspaceUser-5" transform="translate(943.99609375, 688.5)"><g class="basic label-container"><path d="M-105.57421875 -72 L105.57421875 -72 L105.57421875 72 L-105.57421875 72" stroke="none" stroke-width="0" fill="#1f2020" style=""/><path d="M-105.57421875 -72 C-27.33324012344329 -72, 50.90773850311342 -72, 105.57421875 -72 M-105.57421875 -72 C-56.556387969388716 -72, -7.538557188777432 -72, 105.57421875 -72 M105.57421875 -72 C105.57421875 -26.030957262922833, 105.57421875 19.938085474154335, 105.57421875 72 M105.57421875 -72 C105.57421875 -28.555974254022857, 105.57421875 14.888051491954286, 105.57421875 72 M105.57421875 72 C40.03811269932174 72, -25.497993351356513 72, -105.57421875 72 M105.57421875 72 C21.15302074008457 72, -63.26817726983086 72, -105.57421875 72 M-105.57421875 72 C-105.57421875 20.852540503226976, -105.57421875 -30.294918993546048, -105.57421875 -72 M-105.57421875 72 C-105.57421875 23.504579432738467, -105.57421875 -24.990841134523066, -105.57421875 -72" stroke="#ccc" stroke-width="1.3" fill="none" stroke-dasharray="0 0" style=""/></g><g class="annotation-group text" transform="translate(0, -48)"/><g class="label-group text" transform="translate(-57.1953125, -48)"><g class="label" style="font-weight: bolder" transform="translate(0,-12)"><foreignObject width="114.390625" height="24"><div xmlns="http://www.w3.org/1999/xhtml" style="display: table-cell; white-space: nowrap; line-height: 1.5; max-width: 152px; text-align: center;"><span class="nodeLabel markdown-node-label" style=""><p>WorkspaceUser</p></span></div></foreignObject></g></g><g class="members-group text" transform="translate(-93.57421875, 0)"><g class="label" style="" transform="translate(0,-12)"><foreignObject width="129.953125" height="24"><div xmlns="http://www.w3.org/1999/xhtml" style="display: table-cell; white-space: nowrap; line-height: 1.5; max-width: 175px; text-align: center;"><span class="nodeLabel markdown-node-label" style=""><p>+int workspace_id</p></span></div></foreignObject></g><g class="label" style="" transform="translate(0,12)"><foreignObject width="84.890625" height="24"><div xmlns="http://www.w3.org/1999/xhtml" style="display: table-cell; white-space: nowrap; line-height: 1.5; max-width: 133px; text-align: center;"><span class="nodeLabel markdown-node-label" style=""><p>+int user_id</p></span></div></foreignObject></g></g><g class="methods-group text" transform="translate(-93.57421875, 72)"/><g class="divider" style=""><path d="M-105.57421875 -24 C-55.41421508728613 -24, -5.2542114245722615 -24, 105.57421875 -24 M-105.57421875 -24 C-36.64888299657589 -24, 32.276452756848215 -24, 105.57421875 -24" stroke="#ccc" stroke-width="1.3" fill="none" stroke-dasharray="0 0" style=""/></g><g class="divider" style=""><path d="M-105.57421875 48 C-63.037112032870596 48, -20.50000531574119 48, 105.57421875 48 M-105.57421875 48 C-35.30641680107249 48, 34.961385147855026 48, 105.57421875 48" stroke="#ccc" stroke-width="1.3" fill="none" stroke-dasharray="0 0" style=""/></g></g><g class="node default" id="classId-ChannelUser-6" transform="translate(1326.0625, 920.5)"><g class="basic label-container"><path d="M-90.9609375 -72 L90.9609375 -72 L90.9609375 72 L-90.9609375 72" stroke="none" stroke-width="0" fill="#1f2020" style=""/><path d="M-90.9609375 -72 C-44.01467622878292 -72, 2.9315850424341647 -72, 90.9609375 -72 M-90.9609375 -72 C-42.957273758863934 -72, 5.046389982272132 -72, 90.9609375 -72 M90.9609375 -72 C90.9609375 -25.074619461176624, 90.9609375 21.85076107764675, 90.9609375 72 M90.9609375 -72 C90.9609375 -19.466354189760267, 90.9609375 33.067291620479466, 90.9609375 72 M90.9609375 72 C34.55820637063911 72, -21.844524758721775 72, -90.9609375 72 M90.9609375 72 C23.771461621844736 72, -43.41801425631053 72, -90.9609375 72 M-90.9609375 72 C-90.9609375 41.10116300548854, -90.9609375 10.202326010977075, -90.9609375 -72 M-90.9609375 72 C-90.9609375 25.90094736818739, -90.9609375 -20.198105263625223, -90.9609375 -72" stroke="#ccc" stroke-width="1.3" fill="none" stroke-dasharray="0 0" style=""/></g><g class="annotation-group text" transform="translate(0, -48)"/><g class="label-group text" transform="translate(-47.1875, -48)"><g class="label" style="font-weight: bolder" transform="translate(0,-12)"><foreignObject width="94.375" height="24"><div xmlns="http://www.w3.org/1999/xhtml" style="display: table-cell; white-space: nowrap; line-height: 1.5; max-width: 134px; text-align: center;"><span class="nodeLabel markdown-node-label" style=""><p>ChannelUser</p></span></div></foreignObject></g></g><g class="members-group text" transform="translate(-78.9609375, 0)"><g class="label" style="" transform="translate(0,-12)"><foreignObject width="110.734375" height="24"><div xmlns="http://www.w3.org/1999/xhtml" style="display: table-cell; white-space: nowrap; line-height: 1.5; max-width: 157px; text-align: center;"><span class="nodeLabel markdown-node-label" style=""><p>+int channel_id</p></span></div></foreignObject></g><g class="label" style="" transform="translate(0,12)"><foreignObject width="84.890625" height="24"><div xmlns="http://www.w3.org/1999/xhtml" style="display: table-cell; white-space: nowrap; line-height: 1.5; max-width: 133px; text-align: center;"><span class="nodeLabel markdown-node-label" style=""><p>+int user_id</p></span></div></foreignObject></g></g><g class="methods-group text" transform="translate(-78.9609375, 72)"/><g class="divider" style=""><path d="M-90.9609375 -24 C-47.885778649870296 -24, -4.810619799740593 -24, 90.9609375 -24 M-90.9609375 -24 C-45.62871488955181 -24, -0.2964922791036173 -24, 90.9609375 -24" stroke="#ccc" stroke-width="1.3" fill="none" stroke-dasharray="0 0" style=""/></g><g class="divider" style=""><path d="M-90.9609375 48 C-43.89286402878107 48, 3.175209442437861 48, 90.9609375 48 M-90.9609375 48 C-48.89902187373086 48, -6.837106247461719 48, 90.9609375 48" stroke="#ccc" stroke-width="1.3" fill="none" stroke-dasharray="0 0" style=""/></g></g></g></g></g></svg>