<svg width="1600" height="940" viewBox="0 0 1600 940" xmlns="http://www.w3.org/2000/svg">
  <rect width="1600" height="940" fill="#2B2D31"/>
  <rect width="1600" height="48" fill="#1A1B1E"/>
  <rect x="20" y="14" width="16" height="16" rx="5" fill="#FF8A3D"/>
  <circle cx="28" cy="22" r="5" fill="#1A1B1E"/>
  <text x="46" y="27" fill="#FFFFFF" font-family="Segoe UI, Arial, sans-serif" font-size="14" font-weight="700">Chilllink</text>
  <rect x="1430" y="6" width="126" height="34" rx="8" fill="#313338"/>
  <text x="1456" y="28" fill="#FFFFFF" font-family="Segoe UI, Arial, sans-serif" font-size="14">Mon compte</text>

  <rect y="48" width="72" height="892" fill="#1E1F22"/>
  <rect x="72" y="48" width="248" height="892" fill="#2B2D31"/>
  <rect x="320" y="48" width="1280" height="892" fill="#313338"/>

  <circle cx="36" cy="96" r="24" fill="#313338"/>
  <text x="29" y="104" fill="#FFFFFF" font-family="Segoe UI, Arial, sans-serif" font-size="26" font-weight="700">+</text>
  <rect x="0" y="120" width="6" height="38" rx="3" fill="#FFFFFF"/>
  <circle cx="36" cy="160" r="24" fill="#FF8A3D"/>
  <text x="28" y="168" fill="#1E1F22" font-family="Segoe UI, Arial, sans-serif" font-size="18" font-weight="700">P</text>
  <circle cx="36" cy="232" r="24" fill="#313338"/>
  <text x="28" y="240" fill="#FFFFFF" font-family="Segoe UI, Arial, sans-serif" font-size="18" font-weight="700">C</text>

  <text x="84" y="80" fill="#94A3B8" font-family="Segoe UI, Arial, sans-serif" font-size="12" font-weight="700">CHANNELS</text>
  <rect x="214" y="58" width="88" height="30" rx="8" fill="#313338"/>
  <text x="232" y="78" fill="#FFFFFF" font-family="Segoe UI, Arial, sans-serif" font-size="13">Menu</text>
  <rect x="82" y="116" width="228" height="30" rx="8" fill="rgba(255,138,61,0.08)" stroke="#AD6E3A"/>
  <text x="98" y="136" fill="#FFFFFF" font-family="Segoe UI, Arial, sans-serif" font-size="14"># Taff</text>
  <text x="96" y="172" fill="#8E9297" font-family="Segoe UI, Arial, sans-serif" font-size="14">suisse</text>
  <text x="96" y="204" fill="#DCDDDE" font-family="Segoe UI, Arial, sans-serif" font-size="14"># bebe</text>
  <text x="96" y="236" fill="#8E9297" font-family="Segoe UI, Arial, sans-serif" font-size="14">guitare</text>
  <text x="96" y="268" fill="#8E9297" font-family="Segoe UI, Arial, sans-serif" font-size="14">anglais</text>
  <text x="96" y="300" fill="#8E9297" font-family="Segoe UI, Arial, sans-serif" font-size="14">Gaming</text>

  <text x="334" y="80" fill="#FFFFFF" font-family="Segoe UI, Arial, sans-serif" font-size="18" font-weight="700">Projet suisse</text>
  <rect x="1492" y="54" width="94" height="34" rx="8" fill="#313338" stroke="#77736A"/>
  <text x="1510" y="76" fill="#FFFFFF" font-family="Segoe UI, Arial, sans-serif" font-size="14">Channel</text>
  <line x1="320" y1="88" x2="1600" y2="88" stroke="#1A1B1E"/>

  <text x="910" y="126" fill="#94A3B8" font-family="Segoe UI, Arial, sans-serif" font-size="12" font-weight="700">AUJOURD'HUI</text>

  <text x="342" y="160" fill="#FFFFFF" font-family="Segoe UI, Arial, sans-serif" font-size="14" font-weight="700">boungou.elsie@yahoo.fr</text>
  <text x="530" y="160" fill="#949BA4" font-family="Segoe UI, Arial, sans-serif" font-size="12">12:25</text>
  <circle cx="352" cy="194" r="16" fill="#FF8A3D"/>
  <text x="345" y="200" fill="#1E1F22" font-family="Segoe UI, Arial, sans-serif" font-size="13" font-weight="700">B</text>
  <rect x="374" y="172" width="118" height="38" rx="16" fill="#2B2D31" stroke="#1A1B1E"/>
  <text x="390" y="196" fill="#DCDDDE" font-family="Segoe UI, Arial, sans-serif" font-size="14">Bonjour John !</text>

  <text x="342" y="236" fill="#FFFFFF" font-family="Segoe UI, Arial, sans-serif" font-size="14" font-weight="700">boungou.john@yahoo.fr</text>
  <text x="524" y="236" fill="#949BA4" font-family="Segoe UI, Arial, sans-serif" font-size="12">12:26</text>
  <circle cx="352" cy="270" r="16" fill="#FF8A3D"/>
  <text x="345" y="276" fill="#1E1F22" font-family="Segoe UI, Arial, sans-serif" font-size="13" font-weight="700">B</text>
  <rect x="374" y="248" width="112" height="38" rx="16" fill="#2B2D31" stroke="#1A1B1E"/>
  <text x="390" y="272" fill="#DCDDDE" font-family="Segoe UI, Arial, sans-serif" font-size="14">Bonjour Elsie</text>

  <text x="342" y="312" fill="#FFFFFF" font-family="Segoe UI, Arial, sans-serif" font-size="14" font-weight="700">boungou.elsie@yahoo.fr</text>
  <text x="530" y="312" fill="#949BA4" font-family="Segoe UI, Arial, sans-serif" font-size="12">12:26</text>
  <circle cx="352" cy="346" r="16" fill="#FF8A3D"/>
  <text x="345" y="352" fill="#1E1F22" font-family="Segoe UI, Arial, sans-serif" font-size="13" font-weight="700">B</text>
  <rect x="374" y="324" width="214" height="38" rx="16" fill="#2B2D31" stroke="#1A1B1E"/>
  <text x="390" y="348" fill="#DCDDDE" font-family="Segoe UI, Arial, sans-serif" font-size="14">Comment ca va aujourd'hui ?</text>

  <rect x="338" y="866" width="1218" height="54" rx="18" fill="#1E1F22" stroke="#2A2B2F"/>
  <text x="364" y="900" fill="#8E9297" font-family="Segoe UI, Arial, sans-serif" font-size="15">Ecrire un message...</text>
  <circle cx="1522" cy="893" r="18" fill="#A96435"/>
  <text x="1516" y="900" fill="#FFFFFF" font-family="Segoe UI, Arial, sans-serif" font-size="16">➤</text>
  <text x="714" y="922" fill="#B5BAC1" font-family="Segoe UI, Arial, sans-serif" font-size="13">© 2026 Chilllink. Tous droits reserves.</text>
</svg>
