<svg width="1240" height="700" viewBox="0 0 1240 700" xmlns="http://www.w3.org/2000/svg">
  <rect width="1240" height="700" fill="#050816"/>
  <rect x="20" y="20" width="1200" height="650" rx="16" fill="#2B2D31"/>
  <rect x="20" y="20" width="1200" height="78" rx="16" fill="#1E1F22"/>
  <text x="44" y="62" fill="#FFFFFF" font-family="Segoe UI, Arial, sans-serif" font-size="17" font-weight="700">Profil</text>
  <text x="44" y="84" fill="#949BA4" font-family="Segoe UI, Arial, sans-serif" font-size="13">Infos annexes liees a ton compte</text>
  <text x="1140" y="66" fill="#DCDDDE" font-family="Segoe UI, Arial, sans-serif" font-size="28">×</text>
  <text x="44" y="154" fill="#949BA4" font-family="Segoe UI, Arial, sans-serif" font-size="13">Prenom</text>
  <rect x="44" y="170" width="538" height="60" rx="10" fill="#313338" stroke="#1A1B1E"/>
  <text x="64" y="207" fill="#FFFFFF" font-family="Segoe UI, Arial, sans-serif" font-size="16">Elsie</text>
  <text x="604" y="154" fill="#949BA4" font-family="Segoe UI, Arial, sans-serif" font-size="13">Nom</text>
  <rect x="604" y="170" width="578" height="60" rx="10" fill="#313338" stroke="#1A1B1E"/>
  <text x="624" y="207" fill="#FFFFFF" font-family="Segoe UI, Arial, sans-serif" font-size="16">LIKWELA ZOLANA</text>

  <text x="44" y="268" fill="#949BA4" font-family="Segoe UI, Arial, sans-serif" font-size="13">Date de naissance</text>
  <rect x="44" y="284" width="538" height="60" rx="10" fill="#313338" stroke="#1A1B1E"/>
  <text x="64" y="321" fill="#8E9297" font-family="Segoe UI, Arial, sans-serif" font-size="16">jj / mm / aaaa</text>
  <text x="604" y="268" fill="#949BA4" font-family="Segoe UI, Arial, sans-serif" font-size="13">Telephone</text>
  <rect x="604" y="284" width="578" height="60" rx="10" fill="#313338" stroke="#1A1B1E"/>

  <text x="44" y="382" fill="#949BA4" font-family="Segoe UI, Arial, sans-serif" font-size="13">Ville</text>
  <rect x="44" y="398" width="538" height="60" rx="10" fill="#313338" stroke="#1A1B1E"/>
  <text x="64" y="435" fill="#FFFFFF" font-family="Segoe UI, Arial, sans-serif" font-size="16">Warszawa</text>
  <text x="604" y="382" fill="#949BA4" font-family="Segoe UI, Arial, sans-serif" font-size="13">Pays</text>
  <rect x="604" y="398" width="578" height="60" rx="10" fill="#313338" stroke="#1A1B1E"/>
  <text x="624" y="435" fill="#FFFFFF" font-family="Segoe UI, Arial, sans-serif" font-size="16">Pologne</text>

  <text x="44" y="496" fill="#949BA4" font-family="Segoe UI, Arial, sans-serif" font-size="13">Bio</text>
  <rect x="44" y="512" width="1138" height="132" rx="10" fill="#313338" stroke="#1A1B1E"/>
  <text x="64" y="545" fill="#FFFFFF" font-family="Segoe UI, Arial, sans-serif" font-size="16">juste moi ^^</text>

  <rect x="946" y="592" width="110" height="48" rx="12" fill="#313338" stroke="#334155"/>
  <text x="978" y="622" fill="#FFFFFF" font-family="Segoe UI, Arial, sans-serif" font-size="15">Fermer</text>
  <rect x="1072" y="592" width="110" height="48" rx="12" fill="#6366F1"/>
  <text x="1090" y="622" fill="#FFFFFF" font-family="Segoe UI, Arial, sans-serif" font-size="15" font-weight="700">Sauvegarder</text>
</svg>
