<svg width="760" height="700" viewBox="0 0 760 700" xmlns="http://www.w3.org/2000/svg">
  <rect width="760" height="700" fill="#0B0E14"/>
  <rect x="74" y="54" width="600" height="580" rx="18" fill="#2B2D31"/>
  <rect x="74" y="54" width="600" height="92" rx="18" fill="#27292D"/>
  <text x="102" y="94" fill="#FFFFFF" font-family="Segoe UI, Arial, sans-serif" font-size="17" font-weight="700">Membres du workspace</text>
  <text x="102" y="116" fill="#B5BAC1" font-family="Segoe UI, Arial, sans-serif" font-size="13">Inviter / gerer les membres du workspace</text>
  <rect x="616" y="70" width="34" height="34" rx="10" fill="#2F3239" stroke="#4B5563"/>
  <text x="627" y="92" fill="#DCDDDE" font-family="Segoe UI, Arial, sans-serif" font-size="18">×</text>
  <text x="102" y="182" fill="#B5BAC1" font-family="Segoe UI, Arial, sans-serif" font-size="12" font-weight="700">INVITER</text>
  <rect x="102" y="198" width="430" height="42" rx="14" fill="#1E1F22" stroke="#3A3B40"/>
  <text x="120" y="225" fill="#8E9297" font-family="Segoe UI, Arial, sans-serif" font-size="15">email@example.com</text>
  <rect x="554" y="198" width="96" height="42" rx="14" fill="#A96435"/>
  <text x="583" y="225" fill="#1E1F22" font-family="Segoe UI, Arial, sans-serif" font-size="15" font-weight="700">Inviter</text>
  <text x="102" y="280" fill="#B5BAC1" font-family="Segoe UI, Arial, sans-serif" font-size="13">Le membre aura acces au workspace, mais pas forcement aux channels.</text>
  <text x="102" y="340" fill="#B5BAC1" font-family="Segoe UI, Arial, sans-serif" font-size="12" font-weight="700">LISTE</text>
  <rect x="618" y="328" width="30" height="24" rx="12" fill="rgba(255,255,255,0.06)" stroke="rgba(255,255,255,0.08)"/>
  <text x="628" y="345" fill="#949BA4" font-family="Segoe UI, Arial, sans-serif" font-size="12">4</text>

  <rect x="102" y="372" width="548" height="72" rx="14" fill="rgba(255,255,255,0.03)" stroke="rgba(255,255,255,0.06)"/>
  <circle cx="130" cy="408" r="18" fill="#FF8A3D"/>
  <text x="123" y="414" fill="#1E1F22" font-family="Segoe UI, Arial, sans-serif" font-size="16" font-weight="700">B</text>
  <text x="154" y="405" fill="#FFFFFF" font-family="Segoe UI, Arial, sans-serif" font-size="16" font-weight="700">boungou.damien@yahoo.fr</text>
  <text x="154" y="426" fill="#949BA4" font-family="Segoe UI, Arial, sans-serif" font-size="12">id: 7</text>
  <rect x="556" y="390" width="78" height="36" rx="12" fill="rgba(255,80,80,0.10)" stroke="rgba(255,80,80,0.25)"/>
  <text x="574" y="413" fill="#FFBABA" font-family="Segoe UI, Arial, sans-serif" font-size="15" font-weight="700">Retirer</text>

  <rect x="102" y="456" width="548" height="72" rx="14" fill="rgba(255,255,255,0.03)" stroke="rgba(255,255,255,0.06)"/>
  <circle cx="130" cy="492" r="18" fill="#FF8A3D"/>
  <text x="123" y="498" fill="#1E1F22" font-family="Segoe UI, Arial, sans-serif" font-size="16" font-weight="700">B</text>
  <text x="154" y="489" fill="#FFFFFF" font-family="Segoe UI, Arial, sans-serif" font-size="16" font-weight="700">boungou.elsie@yahoo.fr</text>
  <text x="154" y="510" fill="#949BA4" font-family="Segoe UI, Arial, sans-serif" font-size="12">id: 4</text>
  <rect x="556" y="474" width="78" height="36" rx="12" fill="rgba(255,80,80,0.10)" stroke="rgba(255,80,80,0.25)"/>
  <text x="574" y="497" fill="#FFBABA" font-family="Segoe UI, Arial, sans-serif" font-size="15" font-weight="700">Retirer</text>

  <rect x="556" y="572" width="94" height="40" rx="12" fill="#2B2D31" stroke="#3A3B40"/>
  <text x="584" y="597" fill="#DCDDDE" font-family="Segoe UI, Arial, sans-serif" font-size="15">Fermer</text>
</svg>
